<?xml version="1.0" encoding="UTF-8"?>
<svg id="Layer_1" data-name="Layer 1" xmlns="http://www.w3.org/2000/svg" xmlns:xlink="http://www.w3.org/1999/xlink" viewBox="0 0 469.46 530.17">
  <defs>
    <style>
      .cls-1 {
        fill: #939393;
      }

      .cls-2 {
        fill: #ffc5f4;
      }

      .cls-3 {
        stroke: #000;
        stroke-width: .2px;
      }

      .cls-3, .cls-4, .cls-5, .cls-6, .cls-7 {
        stroke-miterlimit: 10;
      }

      .cls-3, .cls-4, .cls-7 {
        fill: none;
      }

      .cls-8 {
        fill: #ffe688;
      }

      .cls-4, .cls-5, .cls-9, .cls-6, .cls-7, .cls-10 {
        font-family: KristenITC-Regular, 'Kristen ITC';
      }

      .cls-4, .cls-5, .cls-6, .cls-7 {
        stroke: #f7d574;
      }

      .cls-4, .cls-5, .cls-10 {
        font-size: 24.4px;
      }

      .cls-11, .cls-5, .cls-6 {
        fill: #f7d574;
      }

      .cls-12 {
        fill: #f4f4f4;
      }

      .cls-13 {
        fill: #fff;
      }

      .cls-14 {
        fill: #777;
      }

      .cls-15 {
        fill: #a0a0a0;
      }

      .cls-16 {
        text-decoration: underline;
      }

      .cls-17 {
        fill: #d38548;
        opacity: .58;
      }

      .cls-18 {
        fill: #bf8d6b;
      }

      .cls-19 {
        fill: #999898;
      }

      .cls-20 {
        fill: gray;
      }

      .cls-9, .cls-6, .cls-7 {
        font-size: 60.25px;
      }

      .cls-9, .cls-10 {
        fill: #ffc69f;
      }

      .cls-6 {
        stroke-width: 4px;
      }

      .cls-21 {
        fill: #adea68;
      }

      .cls-22 {
        fill: #ddb380;
      }

      .cls-23 {
        fill: #ccc;
      }

      .cls-24 {
        fill: url(#linear-gradient);
      }

      .cls-25 {
        fill: #b5b5b5;
      }

      .cls-26 {
        fill: #f4c17f;
      }

      .cls-27 {
        fill: #db7d7d;
      }
    </style>
    <linearGradient id="linear-gradient" x1="369.48" y1="477.17" x2="369.48" y2="452.56" gradientUnits="userSpaceOnUse">
      <stop offset="0" stop-color="#fff"/>
      <stop offset=".19" stop-color="#fafafa"/>
      <stop offset=".39" stop-color="#eee"/>
      <stop offset=".6" stop-color="#d9d9d9"/>
      <stop offset=".8" stop-color="#bcbcbc"/>
      <stop offset="1" stop-color="#999"/>
    </linearGradient>
  </defs>
  <rect class="cls-18" width="469.46" height="530.17"/>
  <g>
    <text class="cls-9" transform="translate(85.42 72.8) scale(.82 1)"><tspan x="0" y="0">Instructions</tspan></text>
    <text class="cls-6" transform="translate(85.42 72.8) scale(.82 1)"><tspan x="0" y="0">Instructions</tspan></text>
    <text class="cls-7" transform="translate(85.42 72.8) scale(.82 1)"><tspan x="0" y="0">Instructions</tspan></text>
  </g>
  <g>
    <text class="cls-10" transform="translate(72.09 138.79) scale(.82 1)"><tspan x="0" y="0">In Cheese Rush, Mia the mouse</tspan><tspan x="0" y="29.28">needs your help catching cheese</tspan><tspan x="0" y="58.56">to beat her hunger. It won´t be</tspan><tspan x="0" y="87.84">easy though, an angry cat has her</tspan><tspan x="0" y="117.12">sights set on complicating your</tspan><tspan x="0" y="146.4">life and you will need to be</tspan><tspan x="0" y="175.68">cautious about mouse traps as</tspan><tspan x="0" y="204.96">well. Avoid these and collect </tspan><tspan class="cls-16" x="353.79" y="204.96">15</tspan><tspan x="0" y="234.24">cheese pieces before the time </tspan><tspan x="0" y="263.52">runs out!</tspan></text>
    <text class="cls-5" transform="translate(72.09 138.79) scale(.82 1)"><tspan x="0" y="0">In Cheese Rush, Mia the mouse</tspan><tspan x="0" y="29.28">needs your help catching cheese</tspan><tspan x="0" y="58.56">to beat her hunger. It won´t be</tspan><tspan x="0" y="87.84">easy though, an angry cat has her</tspan><tspan x="0" y="117.12">sights set on complicating your</tspan><tspan x="0" y="146.4">life and you will need to be</tspan><tspan x="0" y="175.68">cautious about mouse traps as</tspan><tspan x="0" y="204.96">well. Avoid these and collect </tspan><tspan class="cls-16" x="353.79" y="204.96">15</tspan><tspan x="0" y="234.24">cheese pieces before the time </tspan><tspan x="0" y="263.52">runs out!</tspan></text>
    <text class="cls-4" transform="translate(72.09 138.79) scale(.82 1)"><tspan x="0" y="0">In Cheese Rush, Mia the mouse</tspan><tspan x="0" y="29.28">needs your help catching cheese</tspan><tspan x="0" y="58.56">to beat her hunger. It won´t be</tspan><tspan x="0" y="87.84">easy though, an angry cat has her</tspan><tspan x="0" y="117.12">sights set on complicating your</tspan><tspan x="0" y="146.4">life and you will need to be</tspan><tspan x="0" y="175.68">cautious about mouse traps as</tspan><tspan x="0" y="204.96">well. Avoid these and collect </tspan><tspan class="cls-16" x="353.79" y="204.96">15</tspan><tspan x="0" y="234.24">cheese pieces before the time </tspan><tspan x="0" y="263.52">runs out!</tspan></text>
  </g>
  <g>
    <polygon class="cls-8" points="59.54 477.51 147.59 458.61 126.26 440.16 59.54 477.51"/>
    <path class="cls-11" d="m144.99,465.98c0,1.81,1.13,3.31,2.6,3.54v18.21l-14.97,3.22c0-.12.01-.24.01-.36,0-2.92-1.98-5.28-4.42-5.28s-4.42,2.36-4.42,5.28c0,.77.14,1.51.39,2.17l-64.64,13.88v-7.78c2.53-.52,4.46-3.15,4.46-6.32s-1.93-5.81-4.46-6.32v-8.7l88.05-18.91v3.83c-1.47.23-2.6,1.73-2.6,3.54Z"/>
    <ellipse class="cls-17" cx="87.51" cy="490.99" rx="3.81" ry="4.55"/>
    <ellipse class="cls-17" cx="108.9" cy="477.74" rx="2.23" ry="2.67"/>
    <ellipse class="cls-17" cx="142.61" cy="479.54" rx="3.19" ry="3.82"/>
    <ellipse class="cls-17" cx="106.67" cy="455.95" rx="3.45" ry="2.81"/>
    <ellipse class="cls-17" cx="133.98" cy="455.95" rx="3.47" ry="2.92"/>
  </g>
  <g>
    <g>
      <g>
        <g>
          <g>
            <path class="cls-1" d="m260.44,481.94v5.43h1.37c3.3,0,5.98,2.64,5.98,5.89v19.14h7.34v-30.46h-14.69Z"/>
            <path class="cls-14" d="m248.83,485.62v4.77h1.37c3.3,0,5.98,2.32,5.98,5.18v16.83h7.34v-26.78h-14.69Z"/>
            <path class="cls-14" d="m224.76,482.89v5.21h-1.37c-3.3,0-5.98,2.53-5.98,5.65v18.36h-7.34v-29.21h14.69Z"/>
            <path class="cls-1" d="m241.48,487.87v4.32h-1.37c-3.3,0-5.98,2.1-5.98,4.69v15.23h-7.34v-24.23h14.69Z"/>
            <path class="cls-1" d="m281.73,469.71c0,4.65-2.43,8.98-6.6,12.61-2.69,2.33-6.09,4.37-10.04,6.02-.51.22-1.04.42-1.57.62-2.92,1.1-6.1,1.99-9.49,2.64-4.1.78-8.49,1.21-13.05,1.21-1.22,0-2.43-.03-3.62-.09-3.68-.18-7.22-.64-10.56-1.35-2.53-.53-4.94-1.2-7.2-2-3.58-1.25-6.79-2.81-9.53-4.61-1.68-1.11-3.18-2.3-4.47-3.58-.6-.6-1.16-1.21-1.67-1.84h0c-.48-.59-.92-1.2-1.31-1.81-.17-.27-.34-.55-.49-.83-.85-1.52-1.43-3.11-1.71-4.75-.13-.74-.19-1.49-.19-2.24,0-.93.1-1.86.29-2.76.11-.55.26-1.09.44-1.62.15-.44.32-.87.51-1.3.42-.95.95-1.88,1.58-2.78,0,0,0,0,0,0,.38-.54.79-1.08,1.24-1.6h0c2.92-3.41,7.28-6.35,12.63-8.58.97-.4,1.98-.78,3.01-1.14.85-.29,1.73-.57,2.62-.82.13-.04.25-.07.38-.11.83-.23,1.68-.45,2.55-.65,1.15-.27,2.32-.51,3.51-.71,2.52-.44,5.14-.74,7.83-.9,1.22-.07,2.46-.11,3.71-.12.15,0,.3,0,.44,0,2.51,0,4.97.13,7.36.38,1.52.16,3,.36,4.46.61,2.55.44,4.99,1.01,7.3,1.71,1.86.56,3.63,1.2,5.31,1.91,2.37,1.01,4.53,2.15,6.46,3.42,2.77,1.82,5.05,3.89,6.72,6.15,2.03,2.75,3.15,5.76,3.15,8.92Z"/>
            <path class="cls-1" d="m232.44,512.1c-1.09-2.77-3.21-4.65-5.64-4.65s-4.55,1.88-5.64,4.65h11.28Z"/>
            <path class="cls-1" d="m274.62,512.4c-1.09-2.77-3.21-4.65-5.64-4.65s-4.55,1.88-5.64,4.65h11.28Z"/>
            <path class="cls-14" d="m215.92,512.1c-1.09-2.77-3.21-4.65-5.64-4.65s-4.55,1.88-5.64,4.65h11.28Z"/>
            <path class="cls-14" d="m261.81,512.4c-1.09-2.77-3.21-4.65-5.64-4.65s-4.55,1.88-5.64,4.65h11.28Z"/>
            <g>
              <g>
                <g>
                  <g>
                    <path class="cls-20" d="m205.02,448.56l-1.08.41-.18.07-13.3,5c-.24.09-.47-.03-.45-.24-.03-.43-.05-.85-.07-1.28-.35-6.55-.2-12.66,2.25-16.79.03-.28.46-.44.65-.25l7.54,7.67.76.77,2.8,2.84,1.29,1.31c.14.14.04.39-.21.49Z"/>
                    <path class="cls-2" d="m193.6,441c-1.41,2.38-1.41,5.99-1.18,9.8-.01.11.11.18.24.13l7.9-2.97c.13-.05.19-.19.11-.26l-6.72-6.83c-.1-.1-.34-.02-.35.13Z"/>
                  </g>
                  <g>
                    <path class="cls-20" d="m225.34,452.51c-.02.42-.05.85-.07,1.28.03.21-.21.33-.45.24l-13.3-5-.18-.07-1.08-.41c-.24-.09-.35-.34-.21-.49l1.29-1.31,2.8-2.84.76-.77,7.54-7.67c.19-.19.62-.03.65.25,2.45,4.13,2.6,10.24,2.25,16.79Z"/>
                    <path class="cls-2" d="m221.66,441c1.41,2.38,1.41,5.99,1.18,9.8.01.11-.11.18-.24.13l-7.9-2.97c-.13-.05-.19-.19-.11-.26l6.72-6.83c.1-.1.34-.02.35.13Z"/>
                  </g>
                  <path class="cls-20" d="m229.03,464.84c0,12.12-9.58,16.39-21.4,16.39s-21.4-4.27-21.4-16.39c0-4.57,1.36-8.81,3.69-12.32.72-1.09,1.54-2.11,2.43-3.04,1.68-1.76,3.64-3.23,5.82-4.33.89-.45,1.8-.84,2.75-1.16.07-.02.14-.05.21-.07.91-.3,1.84-.53,2.8-.7.54-.1,1.09-.17,1.64-.23.68-.07,1.36-.1,2.06-.1s1.38.03,2.06.1c.55.05,1.1.13,1.64.23.96.17,1.89.41,2.8.7.07.02.14.05.21.07h0c.95.32,1.87.71,2.75,1.16,2.17,1.1,4.14,2.57,5.82,4.33.9.94,1.71,1.95,2.43,3.04,2.33,3.51,3.69,7.76,3.69,12.32Z"/>
                  <g>
                    <path class="cls-21" d="m204.69,458.81c-1.39,3.49-5.19,5.12-8.48,3.64-3.29-1.48-4.82-5.51-3.43-9,1.83,1.33,3.97,2.5,6.44,3.51l.23.09,1.09.42.25.1c1.23.45,2.52.86,3.89,1.24Z"/>
                    <path d="m200.63,458.5c0,1.18-.3,2.14-.68,2.14s-.68-.96-.68-2.14c0-.56.07-1.07.18-1.45l1.09.42c.05.3.08.66.08,1.03Z"/>
                  </g>
                  <g>
                    <path class="cls-21" d="m210.58,458.81c1.39,3.49,5.19,5.12,8.48,3.64,3.29-1.48,4.82-5.51,3.43-9-1.83,1.33-3.97,2.5-6.44,3.51l-.23.09-1.09.42-.25.1c-1.23.45-2.52.86-3.89,1.24Z"/>
                    <path d="m214.64,458.5c0,1.18.3,2.14.68,2.14s.68-.96.68-2.14c0-.56-.07-1.07-.18-1.45l-1.09.42c-.05.3-.08.66-.08,1.03Z"/>
                  </g>
                  <path class="cls-2" d="m206.94,465.54l-.94-.95c-.61-.62-.18-1.67.7-1.67h1.88c.87,0,1.31,1.05.7,1.67l-.94.95c-.38.39-1.01.39-1.39,0Z"/>
                </g>
                <path class="cls-15" d="m217.41,474.79c-.79,1.41-2.04,2.62-3.59,3.5-.07.04-.13.08-.2.11-.13.07-.26.13-.39.2-.05.03-.11.05-.16.08-.08.04-.16.07-.23.11-.06.03-.13.06-.19.08,0,0-.01,0-.02,0-.06.03-.13.05-.19.08-.03.01-.07.03-.1.04-.03.01-.07.03-.1.04-.07.03-.14.05-.21.08-.07.03-.14.05-.21.07-.07.02-.14.05-.22.07-.07.02-.14.04-.21.06,0,0,0,0,0,0-.07.02-.14.04-.21.06-.1.03-.19.05-.29.08-.06.01-.11.03-.17.04-.06.01-.12.03-.18.04-.09.02-.18.04-.27.06-.11.02-.21.04-.32.06-.04,0-.08.02-.13.02-.05,0-.1.02-.15.02-.07.01-.13.02-.2.03-.33.05-.67.08-1.01.1-.07,0-.14,0-.21.01-.21,0-.41.01-.62.01s-.41,0-.62-.01c-.06,0-.13,0-.19,0-.07,0-.14,0-.22-.02-.07,0-.14-.01-.2-.02,0,0-.01,0-.02,0-.06,0-.12-.01-.18-.02-.13-.01-.27-.03-.4-.05-.1-.01-.2-.03-.3-.05-.02,0-.03,0-.05,0-.04,0-.08-.01-.13-.02-.11-.02-.21-.04-.32-.06-.09-.02-.18-.04-.27-.06-.06-.01-.12-.03-.18-.04-.15-.04-.31-.08-.46-.12-.07-.02-.14-.04-.21-.06,0,0,0,0,0,0-.07-.02-.14-.04-.21-.06-.07-.02-.14-.05-.21-.07-.07-.02-.14-.05-.21-.07-.07-.03-.14-.05-.21-.08-.14-.05-.27-.11-.4-.16,0,0-.01,0-.02,0-.07-.03-.13-.06-.19-.08-.07-.03-.13-.06-.2-.09-.06-.03-.12-.06-.18-.08-.07-.04-.14-.07-.22-.11-.06-.03-.13-.07-.19-.1-.07-.04-.13-.07-.2-.11-1.56-.88-2.8-2.09-3.59-3.5.84-1.5,2.19-2.77,3.88-3.66.88-.47,1.85-.83,2.89-1.08.95-.22,1.96-.34,3.01-.34s2.06.12,3.01.34c1.04.24,2.01.61,2.89,1.08,1.69.9,3.04,2.17,3.88,3.66Z"/>
                <g>
                  <path class="cls-13" d="m204.62,470.05l-1.68,3.91-1.22-2.83c.88-.47,1.85-.83,2.89-1.08Z"/>
                  <path class="cls-13" d="m213.53,471.13l-1.21,2.83-1.68-3.91c1.04.24,2.01.61,2.89,1.08Z"/>
                </g>
                <g>
                  <path class="cls-13" d="m205.02,479.62c-.09-.02-.18-.04-.27-.06-.06-.01-.12-.03-.18-.04-.15-.04-.31-.08-.46-.12-.07-.02-.14-.04-.21-.06,0,0,0,0,0,0-.07-.02-.14-.04-.21-.06-.07-.02-.14-.05-.21-.07-.07-.02-.14-.05-.21-.07-.07-.03-.14-.05-.21-.08-.14-.05-.27-.1-.4-.16,0,0-.01,0-.02,0-.07-.03-.13-.06-.19-.08-.07-.03-.13-.06-.2-.09-.06-.03-.12-.06-.18-.08-.07-.04-.14-.07-.22-.11-.06-.03-.13-.07-.19-.1-.07-.04-.13-.07-.2-.11l1.5-3.5.98,2.28,1.09,2.54Z"/>
                  <path class="cls-13" d="m213.82,478.3c-.07.04-.13.08-.2.11-.13.07-.26.13-.39.2-.05.03-.11.05-.16.08-.08.04-.16.07-.23.11-.06.03-.13.06-.19.08,0,0-.01,0-.02,0-.06.03-.13.05-.19.08-.03.01-.07.03-.1.04-.03.01-.07.03-.1.04-.07.03-.14.05-.21.08-.07.03-.14.05-.21.07-.07.02-.14.05-.22.07-.07.02-.14.04-.21.06,0,0,0,0,0,0-.07.02-.14.04-.21.06-.1.03-.19.05-.29.08-.06.01-.11.03-.17.04-.06.01-.12.03-.18.04-.09.02-.18.04-.27.06l1.09-2.54.98-2.28,1.5,3.5Z"/>
                </g>
                <g>
                  <path class="cls-3" d="m204.49,464.78c-.29-1.33-6.86-.84-14.68,1.1"/>
                  <path class="cls-3" d="m204.99,465.4c-.48-1.27-6.9.26-14.36,3.43"/>
                  <path class="cls-3" d="m205.27,465.92c-.68-1.16-6.75,1.56-13.56,6.09"/>
                </g>
                <g>
                  <path class="cls-3" d="m210.78,464.78c.29-1.33,6.86-.84,14.68,1.1"/>
                  <path class="cls-3" d="m210.28,465.4c.48-1.27,6.9.26,14.36,3.43"/>
                  <path class="cls-3" d="m210,465.92c.68-1.16,6.75,1.56,13.56,6.09"/>
                </g>
                <path class="cls-27" d="m213.62,478.41c-.13.07-.26.13-.39.2-.05.03-.11.05-.16.08-.08.04-.16.07-.23.11-.06.03-.13.06-.19.08,0,0-.01,0-.02,0-.06.03-.13.05-.19.08-.03.01-.07.03-.1.04-.03.01-.07.03-.1.04-.07.03-.14.05-.21.08-.07.03-.14.05-.21.07-.07.02-.14.05-.22.07-.07.02-.14.04-.21.06,0,0,0,0,0,0-.07.02-.14.04-.21.06-.1.03-.19.05-.29.08-.06.01-.11.03-.17.04-.06.01-.12.03-.18.04-.09.02-.18.04-.27.06-.11.02-.21.04-.32.06-.04,0-.08.02-.13.02-.05,0-.1.02-.15.02-.07.01-.13.02-.2.03-.33.05-.67.08-1.01.1-.07,0-.14,0-.21.01-.21,0-.41.01-.62.01s-.41,0-.62-.01c-.06,0-.13,0-.19,0-.07,0-.14,0-.22-.02-.07,0-.14-.01-.2-.02,0,0-.01,0-.02,0-.06,0-.12-.01-.18-.02-.13-.01-.27-.03-.4-.05-.1-.01-.2-.03-.3-.05-.02,0-.03,0-.05,0-.04,0-.08-.01-.13-.02-.11-.02-.21-.04-.32-.06-.09-.02-.18-.04-.27-.06-.06-.01-.12-.03-.18-.04-.15-.04-.31-.08-.46-.12-.07-.02-.14-.04-.21-.06,0,0,0,0,0,0-.07-.02-.14-.04-.21-.06-.07-.02-.14-.05-.21-.07-.07-.02-.14-.05-.21-.07-.07-.03-.14-.05-.21-.08-.14-.05-.27-.1-.4-.16,0,0-.01,0-.02,0-.07-.03-.13-.06-.19-.08-.07-.03-.13-.06-.2-.09-.06-.03-.12-.06-.18-.08-.07-.04-.14-.07-.22-.11-.06-.03-.13-.07-.19-.1.19-.54,1.04-1.02,2.28-1.34,1.02-.26,2.31-.42,3.71-.42s2.69.16,3.71.42c1.24.32,2.09.79,2.28,1.34Z"/>
              </g>
              <path class="cls-19" d="m207.63,442.89c.7,0,1.38.03,2.06.1l-2.06,6.81-2.06-6.81c.68-.07,1.36-.1,2.06-.1Z"/>
              <path class="cls-19" d="m201.13,443.92c.91-.3,1.84-.53,2.8-.7v6.19c-.06-.12-.12-.25-.18-.37-.82-1.63-1.71-3.3-2.82-5.05-.18-.28-.36-.56-.55-.84l.76.77Z"/>
              <path class="cls-19" d="m214.9,443.14c-.19.28-.37.56-.55.84h0c-1.11,1.74-2.01,3.41-2.82,5.05-.06.12-.12.25-.18.37v-6.19c.96.17,1.89.41,2.8.7l.76-.77Z"/>
            </g>
          </g>
          <path class="cls-1" d="m274.62,467.45c11.32-1.52,22.93-5.63,29.3-15.78,2.98-4.76,4.22-10.6,2.83-16.09s-5.34-9.94-9.83-13.31c-5.03-3.76-11.23-5.82-17.1-7.87-2.97-1.04-6.69,1.18-7.38,4.19-.76,3.35,1.01,6.27,4.19,7.38,2.26.79,4.51,1.59,6.73,2.48.13.05.83.36.11.04-.77-.34.12.05.3.14.47.21.94.42,1.41.65,1.12.54,2.22,1.12,3.28,1.76.43.26.86.53,1.29.81.25.17,1.19.63,1.27.91,0-.01-1.14-.96-.3-.21.19.17.39.34.59.51.38.34.76.7,1.11,1.07s.69.75,1.03,1.13c.31.35.34.75-.23-.32.09.16.22.31.33.46.28.41.55.83.8,1.26.3.52.73,2,.28.39.23.83.53,1.62.73,2.46.23.99-.07-.38-.05-.51-.02.21.04.5.05.72.02.55-.02,1.08-.03,1.62-.02.79.24-1.29.08-.52-.04.18-.06.36-.1.54-.1.48-.22.96-.36,1.42s-.37.93-.5,1.4c0,0,.54-1.13.23-.57-.15.28-.28.57-.43.85-.46.86-1,1.65-1.55,2.45-.45.65.75-.88.21-.29-.18.2-.34.4-.51.6-.4.45-.81.88-1.24,1.29-.34.32-.68.64-1.04.94-1.13.97.68-.44-.22.2-.97.69-1.97,1.34-3.01,1.92-.55.31-1.12.6-1.69.88-.19.09-.38.18-.58.27-.82.38-.52.03.07-.01-.56.04-1.26.49-1.8.68-.61.21-1.22.41-1.84.6-1.24.37-2.5.69-3.76.96-.56.12-1.13.23-1.69.33-.4.07-2.73.42-.96.18-1.66.22-3.01.52-4.24,1.76-1.04,1.04-1.82,2.75-1.76,4.24s.58,3.16,1.76,4.24c1.08.99,2.71,1.96,4.24,1.76h0Z"/>
        </g>
        <g>
          <path class="cls-25" d="m236.83,446.73l-1.79,16.54-6.04-15.64c2.52-.44,5.14-.74,7.83-.9Z"/>
          <path class="cls-25" d="m248.34,446.99l-3.86,16.21-3.95-16.58c.15,0,.3,0,.44,0,2.51,0,4.97.13,7.36.38Z"/>
          <path class="cls-25" d="m260.1,449.31l-6.58,13.71-.72-15.41c2.55.44,4.99,1.01,7.3,1.71Z"/>
          <path class="cls-25" d="m271.86,454.64l-10.04,10.68,3.58-14.11c2.37,1.01,4.53,2.15,6.46,3.42Z"/>
        </g>
      </g>
      <g>
        <polyline class="cls-25" points="280.62 454.29 281.15 458.23 278.66 454.86"/>
        <polyline class="cls-25" points="285.13 452.5 285.7 456.27 283.41 453.28"/>
        <polyline class="cls-25" points="288.68 450.4 290.16 453.95 286.99 451.48"/>
        <polyline class="cls-25" points="291.58 447.93 293.31 450.84 290.24 449.21"/>
        <polyline class="cls-25" points="293.77 445.16 296.12 447.69 292.69 446.67"/>
        <polyline class="cls-25" points="295.27 442.13 298.04 443.93 294.54 443.82"/>
        <polyline class="cls-25" points="295.35 439.01 298.18 439.42 295.46 440.59"/>
        <polyline class="cls-25" points="294.25 436.28 296.97 435.81 294.91 437.6"/>
        <polyline class="cls-25" points="292.4 434.01 295.45 432.7 293.53 435.33"/>
        <polyline class="cls-25" points="289.85 431.77 292.68 429.66 291.25 432.93"/>
        <polyline class="cls-25" points="287.05 430.1 289.36 427.28 288.66 431.1"/>
      </g>
    </g>
    <polyline class="cls-25" points="284.05 428.65 286.05 425.41 285.86 429.52"/>
    <polyline class="cls-25" points="280.41 427.14 282.2 423.6 282.35 427.89"/>
    <polyline class="cls-25" points="276.22 425.61 278.06 422.05 278.18 426.29"/>
  </g>
  <g>
    <g>
      <path class="cls-22" d="m388.87,511.87h-38.79c-3.31,0-6-2.69-6-6v-47.8c0-12.44,10.08-22.52,22.52-22.52h5.76c12.44,0,22.52,10.08,22.52,22.52v47.8c0,3.31-2.69,6-6,6Z"/>
      <path class="cls-26" d="m386.55,506.53h-34.15c-4.6,0-8.32-3.73-8.32-8.32v-59.9c0-4.95,4.01-8.96,8.96-8.96h32.87c4.95,0,8.96,4.01,8.96,8.96v59.9c0,4.6-3.73,8.32-8.32,8.32Z"/>
    </g>
    <g>
      <rect class="cls-23" x="349.63" y="480.47" width="39.7" height="2.38" rx="1.19" ry="1.19"/>
      <g>
        <rect class="cls-12" x="364.18" y="478.29" width="2.53" height="6.72" rx="1.26" ry="1.26"/>
        <rect class="cls-12" x="360.77" y="478.29" width="2.53" height="6.72" rx="1.26" ry="1.26"/>
        <rect class="cls-12" x="357.36" y="478.29" width="2.53" height="6.72" rx="1.26" ry="1.26"/>
        <rect class="cls-12" x="353.96" y="478.29" width="2.53" height="6.72" rx="1.26" ry="1.26"/>
      </g>
      <g>
        <rect class="cls-12" x="382.22" y="478.01" width="2.53" height="6.72" rx="1.26" ry="1.26"/>
        <rect class="cls-12" x="378.81" y="478.01" width="2.53" height="6.72" rx="1.26" ry="1.26"/>
        <rect class="cls-12" x="375.4" y="478.01" width="2.53" height="6.72" rx="1.26" ry="1.26"/>
        <rect class="cls-12" x="372" y="478.01" width="2.53" height="6.72" rx="1.26" ry="1.26"/>
      </g>
      <path class="cls-12" d="m350.89,483.02h0c-.74-.05-1.31-.73-1.27-1.53l2.23-41.88c.04-.8.68-1.41,1.42-1.37h0c.74.05,1.31.73,1.27,1.53l-2.23,41.88c-.04.8-.68,1.41-1.42,1.37Z"/>
      <path class="cls-12" d="m388.06,482.99h0c.74-.05,1.31-.73,1.27-1.53l-2.23-41.88c-.04-.8-.68-1.41-1.42-1.37h0c-.74.05-1.31.73-1.27,1.53l2.23,41.88c.04.8.68,1.41,1.42,1.37Z"/>
      <rect class="cls-12" x="352.33" y="438.23" width="34.6" height="1.97" rx=".99" ry=".99"/>
      <g>
        <rect class="cls-12" x="361.34" y="487.98" width="16.29" height="11.95" rx="3.65" ry="3.65"/>
        <path class="cls-24" d="m369.48,435.94h0c.64,0,1.17.59,1.17,1.31v50.73h-2.33v-50.73c0-.72.52-1.31,1.17-1.31Z"/>
      </g>
    </g>
  </g>
</svg>